{
    "asset" : {
        "generator" : "Khronos glTF Blender I/O v1.0.5",
        "version" : "2.0"
    },
    "scene" : 0,
    "scenes" : [
        {
            "name" : "Scene",
            "nodes" : [
                0
            ]
        }
    ],
    "nodes" : [
        {
            "mesh" : 0,
            "name" : "water",
            "rotation" : [
                0.7071068286895752,
                0,
                0,
                0.7071067094802856
            ]
        }
    ],
    "materials" : [
        {
            "doubleSided" : false,
            "name" : "water",
            "pbrMetallicRoughness" : {
                "baseColorFactor" : [
                    1.0,
0.9647058823529412,
0.7215686274509804,
                    1
                ],
                "metallicFactor" : 0,
                "roughnessFactor" : 0.2546440064907074
            }
        }
    ],
    "meshes" : [
        {
            "name" : "water.obj",
            "primitives" : [
                {
                    "attributes" : {
                        "POSITION" : 0,
                        "NORMAL" : 1
                    },
                    "indices" : 2,
                    "material" : 0
                }
            ]
        }
    ],
    "accessors" : [
        {
            "bufferView" : 0,
            "componentType" : 5126,
            "count" : 10626,
            "max" : [
                41.54650115966797,
                275.1719970703125,
                -268.3420104980469
            ],
            "min" : [
                -40.27629852294922,
                -271.77801513671875,
                -384.3529968261719
            ],
            "type" : "VEC3"
        },
        {
            "bufferView" : 1,
            "componentType" : 5126,
            "count" : 10626,
            "type" : "VEC3"
        },
        {
            "bufferView" : 2,
            "componentType" : 5123,
            "count" : 61992,
            "type" : "SCALAR"
        }
    ],
    "bufferViews" : [
        {
            "buffer" : 0,
            "byteLength" : 127512,
            "byteOffset" : 0
        },
        {
            "buffer" : 0,
            "byteLength" : 127512,
            "byteOffset" : 127512
        },
        {
            "buffer" : 0,
            "byteLength" : 123984,
            "byteOffset" : 255024
        }
    ],
    "buffers" : [
        {
            "byteLength" : 379008,
            "uri" : "data:application/octet-stream;base64,"
        }
    ]
}
